<?xml version="1.0" standalone="no"?>
<!DOCTYPE svg PUBLIC "-//W3C//DTD SVG 20010904//EN"
 "http://www.w3.org/TR/2001/REC-SVG-20010904/DTD/svg10.dtd">
<svg version="1.0" xmlns="http://www.w3.org/2000/svg"
 width="110.000000pt" height="112.000000pt" viewBox="0 0 110.000000 112.000000"
 preserveAspectRatio="xMidYMid meet">
<metadata>
Created by potrace 1.16, written by Peter Selinger 2001-2019
</metadata>
<g transform="translate(0.000000,112.000000) scale(0.100000,-0.100000)"
fill="#000000" stroke="none">
<path d="M392 980 c-21 -9 -21 -12 -9 -42 10 -24 21 -34 40 -36 18 -2 27 -9
27 -21 0 -15 11 -17 83 -18 60 0 98 -6 139 -22 70 -27 158 -105 199 -175 35
-63 40 -37 8 56 -36 107 -101 183 -202 235 -45 23 -66 27 -157 30 -58 2 -115
-2 -128 -7z"/>
<path d="M419 733 l-74 -76 65 35 c56 29 109 40 96 20 -2 -4 18 -7 44 -8 36 0
61 -8 97 -31 26 -16 47 -35 46 -41 -2 -7 2 -12 7 -12 6 0 15 -10 20 -22 7 -18
9 -19 9 -5 1 10 -6 34 -14 54 -8 20 -14 37 -12 39 2 2 16 -4 32 -12 25 -13 23
-7 -18 33 -36 37 -50 45 -56 34 -7 -11 -18 -8 -57 15 -27 16 -55 27 -62 26 -8
-2 -22 4 -31 12 -16 14 -23 9 -92 -61z"/>
<path d="M220 730 c-31 -30 -63 -76 -83 -117 -29 -63 -32 -76 -32 -168 0 -87
4 -107 26 -156 28 -60 93 -139 114 -139 23 0 41 75 22 87 -6 3 0 11 11 17 21
11 21 12 -12 58 -50 72 -69 143 -64 244 4 72 10 94 40 154 20 39 35 70 33 70
-2 0 -27 -22 -55 -50z"/>
<path d="M386 630 l-36 -40 -1 32 c0 24 -8 6 -29 -62 -16 -52 -30 -98 -30
-101 0 -4 11 -10 25 -13 14 -4 25 -12 25 -19 0 -7 22 -26 49 -41 34 -20 47
-34 44 -45 -3 -13 8 -20 49 -31 l53 -13 -40 -12 c-30 -9 -35 -13 -20 -16 19
-5 65 16 65 30 0 3 -18 17 -40 31 -22 14 -40 28 -40 32 0 5 -6 8 -14 8 -15 0
-29 27 -21 40 3 5 -4 25 -16 45 -28 47 -29 119 -2 173 11 23 19 42 18 42 -2 0
-19 -18 -39 -40z"/>
<path d="M759 595 c-3 -87 -10 -112 -29 -100 -5 3 -18 -12 -30 -34 -24 -49
-94 -92 -149 -95 -52 -1 -36 -17 24 -24 l47 -5 -28 -22 -27 -22 22 -15 c13 -9
32 -13 44 -10 19 5 16 8 -17 17 l-39 11 54 15 c41 11 53 19 51 32 -2 11 13 26
43 44 25 16 45 34 45 40 0 7 6 13 13 13 37 1 38 15 12 106 -34 119 -33 118
-36 49z"/>
<path d="M930 440 c-8 -15 -15 -18 -27 -11 -13 7 -21 -2 -43 -48 -57 -120
-177 -202 -321 -219 l-74 -8 59 -18 c134 -41 294 1 389 102 48 52 90 126 101
178 6 27 4 32 -16 38 -40 10 -57 7 -68 -14z"/>
</g>
</svg>
